<svg xmlns="http://www.w3.org/2000/svg" width="40" height="40" viewBox="0 0 40 40">
  <metadata><?xpacket begin="﻿" id="W5M0MpCehiHzreSzNTczkc9d"?>
<x:xmpmeta xmlns:x="adobe:ns:meta/" x:xmptk="Adobe XMP Core 5.6-c138 79.159824, 2016/09/14-01:09:01        ">
   <rdf:RDF xmlns:rdf="http://www.w3.org/1999/02/22-rdf-syntax-ns#">
      <rdf:Description rdf:about=""/>
   </rdf:RDF>
</x:xmpmeta>
                                                                                                    
                                                                                                    
                                                                                                    
                                                                                                    
                                                                                                    
                                                                                                    
                                                                                                    
                                                                                                    
                                                                                                    
                                                                                                    
                                                                                                    
                                                                                                    
                                                                                                    
                                                                                                    
                                                                                                    
                                                                                                    
                                                                                                    
                                                                                                    
                                                                                                    
                                                                                                    
                           
<?xpacket end="w"?></metadata>
<defs>
    <style>
      .cls-1 {
        fill: #d8d8d8;
        fill-rule: evenodd;
      }
    </style>
  </defs>
  <path id="Basket" class="cls-1" d="M35,13h-5.1a1.506,1.506,0,0,0-.132-0.294l-5-8a1.5,1.5,0,0,0-2.547,1.588L26.418,13H13.582l4.191-6.706a1.5,1.5,0,0,0-2.547-1.588l-5,8A1.505,1.505,0,0,0,10.1,13H5a3,3,0,0,0-3,3v2a3,3,0,0,0,2.317,2.915l3.8,12.934A3,3,0,0,0,11,36H29a3,3,0,0,0,2.879-2.151l3.8-12.934A3,3,0,0,0,38,18V16A3,3,0,0,0,35,13ZM5,16H35v2H5V16ZM29,33L11,33,7.47,21H32.53Z"/>
</svg>
